<?xml version="1.0" encoding="utf-8"?>
<!-- Generator: Adobe Illustrator 16.0.3, SVG Export Plug-In . SVG Version: 6.00 Build 0)  -->
<!DOCTYPE svg PUBLIC "-//W3C//DTD SVG 1.1//EN" "http://www.w3.org/Graphics/SVG/1.1/DTD/svg11.dtd">
<svg version="1.1" id="Logo" xmlns="http://www.w3.org/2000/svg" xmlns:xlink="http://www.w3.org/1999/xlink" x="0px" y="0px"
	 width="181.657px" height="204.448px" viewBox="0 0 181.657 204.448" enable-background="new 0 0 181.657 204.448"
	 xml:space="preserve">
<g>
	<path fill="#62AF1F" d="M180.515,53.545c-1.376,3.427-3.85,6.641-6.688,8.273L129.96,87.15l-31.305,18.077
		c-4.306,2.474-11.348,2.474-15.657,0L51.529,87.055L7.827,61.819c-2.837-1.633-5.312-4.847-6.685-8.273
		C0.434,55.314,0,57.136,0,58.826v86.789c0,4.985,3.521,11.092,7.827,13.565l43.703,25.239l31.469,18.173
		c4.309,2.474,11.351,2.474,15.657,0l31.305-18.077l43.867-25.335c4.306-2.474,7.83-8.58,7.83-13.565V58.826
		C181.657,57.136,181.224,55.314,180.515,53.545z"/>
	<path fill="#8CC84B" d="M173.827,45.269L98.655,1.867c-4.306-2.49-11.348-2.49-15.657,0L7.827,45.269
		c-2.837,1.64-5.312,4.854-6.685,8.276c1.373,3.427,3.847,6.641,6.685,8.273l75.172,43.408c4.309,2.474,11.351,2.474,15.657,0
		l75.172-43.408c2.838-1.633,5.312-4.847,6.688-8.273C179.139,50.123,176.665,46.909,173.827,45.269z"/>
</g>
<g>
	<g>
		<g>
			<path fill="#62AF1F" d="M98.655,64.188c-4.306,2.471-11.348,2.471-15.657,0L51.529,75.951v67.424l31.469,18.179
				c4.309,2.474,11.351,2.474,15.657,0l31.305-18.084V76.045L98.655,64.188z"/>
		</g>
	</g>
</g>
<g>
	<path fill="#FFFFFF" d="M147.17,64.647l-17.036-9.833L96.14,35.187c-2.926-1.687-7.704-1.687-10.624,0L51.523,54.814l-17.037,9.833
		c-2.92,1.687-5.309,5.824-5.309,9.203v18.039v40.874c0,3.373,2.389,7.518,5.309,9.2l11.563,6.682
		c5.752,2.904,5.474-5.929,5.474-5.929c0-0.025,0.009-0.038,0.009-0.069v-20.393c0-0.051-0.009-0.114-0.009-0.165v-11.161
		l33.993,19.621c2.92,1.695,7.697,1.695,10.624,0l33.994-19.621l-0.069,32.801c0.126,2.303,0.939,7.517,5.805,4.739
		c0.06-0.038,0.095-0.038,0.152-0.069l11.148-6.436c2.92-1.683,5.309-5.827,5.309-9.2V91.889V73.85
		C152.479,70.471,150.09,66.333,147.17,64.647z"/>
	<path fill="#FF9900" d="M126.749,87.083L94.214,105.86c-1.86,1.076-4.914,1.076-6.773,0L54.908,87.083
		c-1.404-0.81-2.613-2.506-3.123-4.22c0.509-1.699,1.718-3.396,3.123-4.198L87.44,59.873c1.86-1.075,4.913-1.075,6.773,0
		l32.535,18.793c1.405,0.803,2.61,2.499,3.123,4.198C129.359,84.578,128.153,86.274,126.749,87.083z"/>
</g>
</svg>
